<svg width="600" height="600" xmlns="http://www.w3.org/2000/svg">
 <g id="Layer_1">
  <title>Layer 1</title>
  <g stroke="null">
   <g stroke="null" id="svg_2">
    <path fill="#7d8288" stroke="null" d="m550.64714,300.14998c0,-32.53307 20.59648,-60.61918 48.79961,-71.50254c-7.60665,-31.36282 -20.59648,-61.78943 -36.86301,-88.82231c-9.71311,4.32994 -20.59648,6.55342 -31.36282,6.55342c-19.54325,0 -38.96947,-7.60665 -54.18278,-22.70293c-22.70293,-22.70293 -28.20313,-57.45949 -16.26654,-85.54559c-27.03288,-16.38356 -56.28923,-29.37338 -88.82231,-36.98004c-9.71311,29.25636 -37.91624,49.85284 -70.44931,49.85284s-60.61918,-20.59648 -71.50254,-48.79961c-31.47984,7.60665 -61.78943,20.59648 -88.82231,36.86301c12.98982,28.20313 7.60665,61.78943 -16.26654,85.54559c-15.21331,15.21331 -34.63953,22.70293 -54.18278,22.70293c-10.88337,0 -21.64971,-2.22348 -31.36282,-6.55342c-16.26654,27.03288 -29.25636,57.45949 -36.86301,88.82231c28.20313,10.88337 48.79961,38.96947 48.79961,71.50254s-20.59648,60.61918 -48.79961,71.50254c7.60665,31.36282 20.59648,61.78943 36.86301,88.82231c9.71311,-4.32994 20.59648,-6.55342 31.36282,-6.55342c19.54325,0 38.96947,7.60665 54.18278,22.70293c22.70293,22.70293 28.20313,57.45949 16.26654,85.54559c27.03288,16.26654 57.45949,29.25636 88.82231,36.86301c10.88337,-28.20313 38.96947,-48.79961 71.50254,-48.79961s60.61918,20.59648 71.50254,48.79961c31.36282,-7.60665 61.78943,-20.59648 88.82231,-36.86301c-11.93659,-28.20313 -7.60665,-61.78943 16.26654,-85.54559c15.21331,-15.21331 34.63953,-22.70293 54.18278,-22.70293c10.88337,0 21.64971,2.22348 31.36282,6.55342c16.26654,-27.03288 29.25636,-57.45949 36.86301,-88.82231c-30.30959,-11.70254 -49.85284,-39.90567 -49.85284,-72.43874l0,0zm-248.09392,123.57886c-68.22583,0 -124.63209,-55.23601 -124.63209,-124.63209s55.23601,-124.63209 124.63209,-124.63209s124.63209,57.45949 124.63209,125.68532s-55.23601,123.57886 -124.63209,123.57886z" id="svg_3"/>
   </g>
  </g>
 </g>

</svg>